<svg width="229" height="90" viewBox="0 0 229 90" fill="none" xmlns="http://www.w3.org/2000/svg">
<g clip-path="url(#clip0_2085_1329)">
<path fill-rule="evenodd" clip-rule="evenodd" d="M39.7582 0.282829L37.7485 0.424051V13.4514V26.4792H26.6438H15.5395L15.6382 47.1035L15.7374 67.7277L19.5631 69.937C21.6674 71.152 23.519 72.1463 23.6782 72.1463C23.8375 72.1463 23.9676 63.8572 23.9676 53.726V35.3056H30.8581H37.7485V55.261V75.2164H42.1508H46.553V41.6269V8.03741L51.8165 8.14409L57.0801 8.25077L57.1781 40.9661C57.25 65.0836 57.1525 73.7473 57.1525 73.7473C57.3917 73.7473 59.2842 73.3479 60.6754 72.9403C62.0665 72.5328 63.9372 72.0082 64.8318 71.7745L66.4587 71.3492V49.2978V27.2467H72.5836H78.7084V46.8183C78.3256 62.1686 78.398 64.7291 78.398 64.7291C79.7379 63.7697 80.3121 63.3859 82.8003 61.659L84.7143 60.3158L86.4369 59.1646L86.7473 39.6252V18.6993L76.1245 18.8475L65.5017 18.996L65.3995 9.49798L65.2969 0L53.5326 0.0709948C47.0621 0.110138 40.8634 0.20531 39.7582 0.282829ZM93.0804 35.0539C92.1146 35.7619 92.438 38.469 93.7346 40.5278C96.1344 44.3389 96.7292 49.6182 95.2348 53.8423C94.2322 56.6763 91.1071 61.9767 88.2012 64.3599C84.1327 68.3713 78.8489 72.2108 75.0718 73.9005C71.1243 75.6665 64.9348 77.7699 59.7597 79.1038L54.6643 80.0793L49.0412 80.8138L42.9888 81.2306C32.1742 81.2352 31.0798 80.5283 28.0595 79.6956C20.5271 77.6191 14.7206 74.0923 11.4002 70.4574C10.4888 69.4596 9.11373 67.316 8.34468 65.6938C7.07645 63.0183 6.93328 62.382 6.8016 58.8418C7.00532 55.327 7.1455 54.969 7.77093 52.8326C8.34513 51.1057 9.15967 49.982 9.83799 49.1359C10.5159 48.2901 11.1839 46.9477 11.3225 46.1529C12.0743 41.8318 8.74088 40.8486 5.54716 44.4486C1.22837 49.317 -0.926425 57.9722 0.378167 65.2107C1.09018 69.1618 2.60723 72.3409 5.28608 75.4957C11.4255 82.7261 19.8184 87.0177 32.1979 89.2557C38.028 90.3099 49.7888 90.2324 56.0473 89.0984C70.6248 86.4578 79.9074 82.7269 88.5296 76.0434C95.7301 70.462 100.831 63.2773 102.467 56.4123C104.067 49.695 101.943 40.6932 97.7341 36.361C95.8507 34.4222 94.4707 34.035 93.0804 35.0539Z" fill="#5BC561"/>
<path d="M120.753 19.5308C121.299 19.5308 121.807 19.5755 122.279 19.665C122.759 19.7546 123.195 19.8726 123.585 20.019C123.976 20.1574 124.314 20.3079 124.599 20.4707C124.883 20.6253 125.115 20.7677 125.294 20.8979V20.019H129.323V26.6719H125.05C125.05 26.1266 124.981 25.6709 124.843 25.3047C124.713 24.9385 124.534 24.6414 124.306 24.4136C124.086 24.1857 123.826 24.0229 123.524 23.9253C123.223 23.8276 122.898 23.7788 122.548 23.7788C122.068 23.7788 121.657 23.8724 121.315 24.0596C120.973 24.2386 120.692 24.5316 120.473 24.9385C120.261 25.3454 120.098 25.8866 119.984 26.562C119.879 27.2375 119.826 28.0594 119.826 29.0278C119.826 30.0125 119.883 30.8385 119.997 31.5059C120.119 32.165 120.298 32.7021 120.534 33.1172C120.778 33.5241 121.087 33.8211 121.461 34.0083C121.836 34.1873 122.283 34.2769 122.804 34.2769C123.154 34.2769 123.492 34.2118 123.817 34.0815C124.143 33.9432 124.428 33.7357 124.672 33.459C124.924 33.1823 125.119 32.8364 125.258 32.4214C125.404 32.0063 125.478 31.5059 125.478 30.9199H129.726C129.726 31.9535 129.563 32.93 129.237 33.8496C128.912 34.7692 128.403 35.5749 127.711 36.2666C127.02 36.9583 126.141 37.5076 125.075 37.9146C124.009 38.3215 122.743 38.5249 121.278 38.5249C119.96 38.5249 118.711 38.3459 117.531 37.9878C116.359 37.6297 115.333 37.0682 114.455 36.3032C113.584 35.5382 112.892 34.5576 112.379 33.3613C111.875 32.1569 111.623 30.7124 111.623 29.0278C111.623 27.3433 111.879 25.9028 112.392 24.7065C112.912 23.5021 113.596 22.5174 114.442 21.7524C115.297 20.9875 116.269 20.4259 117.36 20.0679C118.45 19.7098 119.582 19.5308 120.753 19.5308Z" fill="white"/>
<path d="M140.248 24.5479V32.1528C140.248 32.6981 140.382 33.0562 140.651 33.2271C140.919 33.3898 141.261 33.4712 141.676 33.4712H142.006V38H131.728V33.4712H132.204C132.635 33.4712 132.952 33.3369 133.156 33.0684C133.367 32.7917 133.473 32.4946 133.473 32.1772V30.4561C133.473 29.984 133.323 29.6382 133.021 29.4185C132.729 29.1906 132.387 29.0767 131.996 29.0767H131.728V24.5479H140.248ZM133.278 21.5449C133.278 20.8451 133.542 20.2469 134.071 19.7505C134.608 19.2541 135.369 19.0059 136.354 19.0059C137.355 19.0059 138.124 19.2541 138.661 19.7505C139.206 20.2469 139.479 20.8451 139.479 21.5449C139.479 22.2611 139.206 22.8674 138.661 23.3638C138.124 23.8521 137.355 24.0962 136.354 24.0962C135.369 24.0962 134.608 23.8521 134.071 23.3638C133.542 22.8674 133.278 22.2611 133.278 21.5449Z" fill="white"/>
<path d="M159.828 20.019V32.4702C159.828 32.8039 159.918 33.0562 160.097 33.2271C160.284 33.3898 160.544 33.4712 160.878 33.4712H161.574V38H153.371V35.7783H153.175C153.045 36.1283 152.854 36.4619 152.602 36.7793C152.349 37.0967 152.04 37.3774 151.674 37.6216C151.308 37.8576 150.872 38.0448 150.368 38.1831C149.871 38.3296 149.306 38.4028 148.671 38.4028C146.677 38.4028 145.167 37.8006 144.142 36.5962C143.117 35.3836 142.604 33.6095 142.604 31.2739C142.604 28.9383 143.153 27.2049 144.252 26.0737C145.351 24.9425 146.86 24.377 148.781 24.377C149.293 24.377 149.753 24.4176 150.16 24.499C150.567 24.5804 150.937 24.6862 151.271 24.8164C151.605 24.9385 151.922 25.0809 152.223 25.2437C152.524 25.3983 152.825 25.5488 153.126 25.6953V25.2559C153.126 24.8164 153.049 24.5072 152.895 24.3281C152.748 24.141 152.459 24.0474 152.028 24.0474H151.381V20.019H159.828ZM149.55 31.396C149.55 31.8354 149.574 32.2505 149.623 32.6411C149.672 33.0317 149.761 33.3735 149.892 33.6665C150.03 33.9595 150.209 34.1873 150.429 34.3501C150.657 34.5129 150.954 34.5942 151.32 34.5942C151.686 34.5942 151.987 34.5169 152.223 34.3623C152.459 34.2077 152.642 33.992 152.772 33.7153C152.911 33.4386 153.004 33.109 153.053 32.7266C153.102 32.3441 153.126 31.9372 153.126 31.5059V28.7471C152.923 28.5518 152.65 28.389 152.309 28.2588C151.967 28.1204 151.637 28.0513 151.32 28.0513C150.954 28.0513 150.657 28.1449 150.429 28.332C150.209 28.5111 150.03 28.7552 149.892 29.0645C149.761 29.3737 149.672 29.7318 149.623 30.1387C149.574 30.5456 149.55 30.9647 149.55 31.396Z" fill="white"/>
<path d="M169.215 26.2446C168.8 26.2446 168.442 26.2772 168.141 26.3423C167.848 26.3993 167.596 26.4684 167.384 26.5498C167.173 26.6312 166.998 26.7248 166.859 26.8306C166.721 26.9282 166.599 27.0177 166.493 27.0991L166.615 27.2212C166.77 27.1398 166.937 27.0584 167.116 26.9771C167.303 26.8957 167.539 26.855 167.824 26.855C168.304 26.855 168.719 27.0137 169.069 27.3311C169.419 27.6403 169.594 28.1367 169.594 28.8203C169.594 29.4714 169.325 29.9963 168.788 30.395C168.259 30.7856 167.547 30.981 166.652 30.981C165.797 30.981 165.114 30.7368 164.601 30.2485C164.097 29.7521 163.844 29.0522 163.844 28.1489C163.844 27.6525 163.983 27.1602 164.259 26.6719C164.536 26.1755 164.963 25.7319 165.541 25.3413C166.127 24.9507 166.868 24.6292 167.763 24.377C168.666 24.1247 169.752 23.9985 171.022 23.9985C172.536 23.9985 173.773 24.141 174.733 24.4258C175.693 24.7106 176.438 25.0768 176.967 25.5244C177.504 25.972 177.87 26.4806 178.065 27.0503C178.269 27.62 178.371 28.1937 178.371 28.7715V33.5444C178.371 34.285 178.395 34.7896 178.444 35.0581C178.493 35.3185 178.676 35.4487 178.993 35.4487C179.245 35.4487 179.42 35.3307 179.518 35.0947C179.624 34.8506 179.677 34.4355 179.677 33.8496V32.3237H181.068V33.874C181.068 34.6064 181.007 35.2575 180.885 35.8271C180.763 36.3887 180.531 36.8729 180.189 37.2798C179.848 37.6785 179.384 37.9797 178.798 38.1831C178.212 38.3947 177.463 38.5005 176.552 38.5005C175.73 38.5005 175.046 38.411 174.501 38.2319C173.964 38.061 173.537 37.8454 173.219 37.585C172.902 37.3245 172.674 37.056 172.536 36.7793C172.405 36.4945 172.34 36.2422 172.34 36.0225H172.145C172.096 36.3561 171.954 36.6735 171.718 36.9746C171.49 37.2757 171.168 37.5443 170.753 37.7803C170.347 38.0081 169.854 38.1912 169.276 38.3296C168.707 38.4761 168.056 38.5493 167.323 38.5493C166.623 38.5493 165.985 38.4801 165.407 38.3418C164.837 38.2116 164.349 38.0041 163.942 37.7192C163.543 37.4263 163.23 37.0519 163.002 36.5962C162.782 36.1323 162.672 35.583 162.672 34.9482C162.672 34.167 162.892 33.5526 163.332 33.105C163.771 32.6493 164.324 32.2912 164.992 32.0308C165.659 31.7622 166.383 31.5465 167.165 31.3838C167.954 31.2129 168.682 31.0094 169.35 30.7734C170.017 30.5374 170.57 30.2323 171.01 29.8579C171.449 29.4836 171.669 28.9546 171.669 28.271C171.669 27.6606 171.478 27.1724 171.095 26.8062C170.713 26.4318 170.086 26.2446 169.215 26.2446ZM171.669 31.5303C171.49 31.7907 171.266 32.0023 170.998 32.165C170.729 32.3197 170.469 32.4743 170.216 32.6289C169.972 32.7754 169.757 32.9544 169.569 33.166C169.39 33.3695 169.301 33.6462 169.301 33.9961C169.301 34.2646 169.374 34.5088 169.521 34.7285C169.667 34.9401 169.952 35.0459 170.375 35.0459C170.757 35.0459 171.067 34.8994 171.303 34.6064C171.547 34.3053 171.669 33.8862 171.669 33.3491V31.5303Z" fill="white"/>
<path d="M198.451 20.019V32.4702C198.451 32.8039 198.541 33.0562 198.72 33.2271C198.907 33.3898 199.167 33.4712 199.501 33.4712H200.197V38H191.994V35.7783H191.798C191.668 36.1283 191.477 36.4619 191.225 36.7793C190.972 37.0967 190.663 37.3774 190.297 37.6216C189.931 37.8576 189.495 38.0448 188.991 38.1831C188.494 38.3296 187.929 38.4028 187.294 38.4028C185.3 38.4028 183.791 37.8006 182.765 36.5962C181.74 35.3836 181.227 33.6095 181.227 31.2739C181.227 28.9383 181.776 27.2049 182.875 26.0737C183.974 24.9425 185.483 24.377 187.404 24.377C187.917 24.377 188.376 24.4176 188.783 24.499C189.19 24.5804 189.56 24.6862 189.894 24.8164C190.228 24.9385 190.545 25.0809 190.846 25.2437C191.147 25.3983 191.448 25.5488 191.75 25.6953V25.2559C191.75 24.8164 191.672 24.5072 191.518 24.3281C191.371 24.141 191.082 24.0474 190.651 24.0474H190.004V20.019H198.451ZM188.173 31.396C188.173 31.8354 188.197 32.2505 188.246 32.6411C188.295 33.0317 188.384 33.3735 188.515 33.6665C188.653 33.9595 188.832 34.1873 189.052 34.3501C189.28 34.5129 189.577 34.5942 189.943 34.5942C190.309 34.5942 190.61 34.5169 190.846 34.3623C191.082 34.2077 191.265 33.992 191.396 33.7153C191.534 33.4386 191.627 33.109 191.676 32.7266C191.725 32.3441 191.75 31.9372 191.75 31.5059V28.7471C191.546 28.5518 191.273 28.389 190.932 28.2588C190.59 28.1204 190.26 28.0513 189.943 28.0513C189.577 28.0513 189.28 28.1449 189.052 28.332C188.832 28.5111 188.653 28.7552 188.515 29.0645C188.384 29.3737 188.295 29.7318 188.246 30.1387C188.197 30.5456 188.173 30.9647 188.173 31.396Z" fill="white"/>
<path d="M208.29 32.0308C208.323 33.2433 208.55 34.0815 208.974 34.5454C209.405 35.0011 210.019 35.229 210.817 35.229C211.085 35.229 211.346 35.1924 211.598 35.1191C211.859 35.0378 212.099 34.9116 212.318 34.7407C212.538 34.5617 212.725 34.3298 212.88 34.0449C213.043 33.752 213.148 33.3857 213.197 32.9463H217.641C217.478 33.9961 217.177 34.875 216.737 35.583C216.306 36.291 215.749 36.8647 215.065 37.3042C214.381 37.7355 213.584 38.0448 212.672 38.2319C211.769 38.4272 210.76 38.5249 209.645 38.5249C208.498 38.5249 207.419 38.3784 206.41 38.0854C205.401 37.7925 204.514 37.349 203.749 36.7549C202.992 36.1527 202.398 35.3999 201.967 34.4966C201.535 33.5851 201.32 32.5028 201.32 31.2495C201.32 30.0532 201.523 29.0034 201.93 28.1001C202.337 27.1968 202.907 26.444 203.639 25.8418C204.38 25.2314 205.25 24.7716 206.251 24.4624C207.261 24.1532 208.367 23.9985 209.572 23.9985C211.053 23.9985 212.326 24.1938 213.393 24.5845C214.459 24.9751 215.329 25.5203 216.005 26.2202C216.68 26.9201 217.177 27.7624 217.494 28.7471C217.812 29.7318 217.962 30.8263 217.946 32.0308H208.29ZM210.097 27.2944C209.527 27.2944 209.104 27.4979 208.827 27.9048C208.559 28.3035 208.38 28.9668 208.29 29.8945H211.867C211.818 29.097 211.647 28.4663 211.354 28.0024C211.061 27.5304 210.642 27.2944 210.097 27.2944Z" fill="white"/>
<path d="M111.5 70V65.4712C112.217 65.4712 112.729 65.3776 113.039 65.1904C113.348 64.9951 113.502 64.633 113.502 64.104V57.9272C113.502 57.3901 113.348 57.028 113.039 56.8408C112.729 56.6455 112.217 56.5479 111.5 56.5479V52.019H122.694V56.5479C121.978 56.5479 121.465 56.6455 121.156 56.8408C120.855 57.028 120.705 57.3901 120.705 57.9272V64.104C120.705 64.633 120.855 64.9951 121.156 65.1904C121.465 65.3776 121.978 65.4712 122.694 65.4712V70H111.5Z" fill="white"/>
<path d="M135.463 62.1997C135.463 61.8823 135.422 61.63 135.341 61.4429C135.268 61.2476 135.17 61.1011 135.048 61.0034C134.934 60.8976 134.804 60.8285 134.657 60.7959C134.511 60.7633 134.368 60.7471 134.23 60.7471C133.701 60.7471 133.306 60.9017 133.046 61.2109C132.785 61.5202 132.655 61.9596 132.655 62.5293V64.2749C132.655 64.7062 132.729 65.0155 132.875 65.2026C133.03 65.3817 133.323 65.4712 133.754 65.4712H134.413V70H124.208V65.4712H124.928C125.262 65.4712 125.514 65.3654 125.685 65.1538C125.864 64.9341 125.954 64.6737 125.954 64.3726V62.0532C125.954 61.6707 125.84 61.4144 125.612 61.2842C125.392 61.1458 125.14 61.0767 124.855 61.0767H124.208V56.5479H131.459L131.203 59.9048H131.41C131.589 58.6515 132.139 57.6872 133.058 57.0117C133.978 56.3363 135.227 55.9985 136.806 55.9985C137.921 55.9985 138.828 56.1572 139.528 56.4746C140.228 56.792 140.769 57.1948 141.151 57.6831C141.542 58.1632 141.806 58.6882 141.945 59.2578C142.083 59.8193 142.152 60.3483 142.152 60.8447V64.2749C142.152 64.7062 142.226 65.0155 142.372 65.2026C142.527 65.3817 142.82 65.4712 143.251 65.4712H143.91V70H135.463V62.1997Z" fill="white"/>
<path d="M153.2 52.019V56.5479H156.85V61.0767H153.2V64.8242C153.2 65.3613 153.273 65.8008 153.419 66.1426C153.574 66.4844 153.887 66.6553 154.359 66.6553C154.62 66.6553 154.827 66.6064 154.982 66.5088C155.145 66.403 155.271 66.2687 155.36 66.106C155.458 65.9351 155.519 65.7438 155.543 65.5322C155.568 65.3125 155.58 65.0765 155.58 64.8242V63.0054H156.984V64.9707C156.984 65.7601 156.898 66.4966 156.728 67.1802C156.565 67.8638 156.28 68.4538 155.873 68.9502C155.474 69.4466 154.929 69.8413 154.237 70.1343C153.546 70.4272 152.675 70.5737 151.625 70.5737C150.461 70.5737 149.534 70.4313 148.842 70.1465C148.15 69.8617 147.625 69.471 147.267 68.9746C146.909 68.4782 146.673 67.8882 146.559 67.2046C146.453 66.521 146.4 65.7764 146.4 64.9707V61.0767H144.484V57.0483C145.094 57.0483 145.66 56.9181 146.181 56.6577C146.71 56.3892 147.161 56.0229 147.536 55.5591C147.918 55.0871 148.211 54.55 148.415 53.9478C148.626 53.3455 148.732 52.7026 148.732 52.019H153.2Z" fill="white"/>
<path d="M164.711 64.0308C164.743 65.2433 164.971 66.0815 165.395 66.5454C165.826 67.0011 166.44 67.229 167.238 67.229C167.506 67.229 167.767 67.1924 168.019 67.1191C168.279 67.0378 168.52 66.9116 168.739 66.7407C168.959 66.5617 169.146 66.3298 169.301 66.0449C169.464 65.752 169.569 65.3857 169.618 64.9463H174.062C173.899 65.9961 173.598 66.875 173.158 67.583C172.727 68.291 172.169 68.8647 171.486 69.3042C170.802 69.7355 170.005 70.0448 169.093 70.2319C168.19 70.4272 167.181 70.5249 166.066 70.5249C164.918 70.5249 163.84 70.3784 162.831 70.0854C161.822 69.7925 160.935 69.349 160.17 68.7549C159.413 68.1527 158.819 67.3999 158.388 66.4966C157.956 65.5851 157.741 64.5028 157.741 63.2495C157.741 62.0532 157.944 61.0034 158.351 60.1001C158.758 59.1968 159.328 58.444 160.06 57.8418C160.801 57.2314 161.671 56.7716 162.672 56.4624C163.681 56.1532 164.788 55.9985 165.993 55.9985C167.474 55.9985 168.747 56.1938 169.813 56.5845C170.88 56.9751 171.75 57.5203 172.426 58.2202C173.101 58.9201 173.598 59.7624 173.915 60.7471C174.232 61.7318 174.383 62.8263 174.367 64.0308H164.711ZM166.518 59.2944C165.948 59.2944 165.525 59.4979 165.248 59.9048C164.979 60.3035 164.8 60.9668 164.711 61.8945H168.288C168.239 61.097 168.068 60.4663 167.775 60.0024C167.482 59.5304 167.063 59.2944 166.518 59.2944Z" fill="white"/>
<path d="M193.312 72.2217C193.312 73.6051 192.514 74.6631 190.919 75.3955C189.333 76.1279 187.034 76.4941 184.022 76.4941C182.932 76.4941 181.87 76.4779 180.836 76.4453C179.803 76.4128 178.887 76.3029 178.09 76.1157C177.292 75.9367 176.649 75.6478 176.161 75.249C175.681 74.8503 175.441 74.2847 175.441 73.5522C175.441 72.9663 175.628 72.4862 176.002 72.1118C176.377 71.7375 176.78 71.4404 177.211 71.2207C176.682 70.9033 176.32 70.5493 176.125 70.1587C175.937 69.7681 175.844 69.3408 175.844 68.877C175.844 68.3236 176.043 67.7946 176.442 67.29C176.841 66.7773 177.414 66.2809 178.163 65.8008C177.431 65.3206 176.869 64.7347 176.479 64.043C176.088 63.3512 175.893 62.5293 175.893 61.5771C175.893 60.6576 176.084 59.8519 176.466 59.1602C176.849 58.4684 177.398 57.8906 178.114 57.4268C178.83 56.9629 179.685 56.6089 180.678 56.3647C181.671 56.1206 182.785 55.9985 184.022 55.9985C185.349 55.9985 186.545 56.141 187.611 56.4258C188.686 56.7106 189.597 57.1419 190.346 57.7197C190.492 57.5244 190.692 57.3332 190.944 57.146C191.155 56.9995 191.424 56.8652 191.75 56.7432C192.075 56.613 192.474 56.5479 192.946 56.5479H194.069V61.0767H193.263C192.913 61.0767 192.645 61.1743 192.458 61.3696C192.278 61.5568 192.173 61.7399 192.14 61.9189C191.855 63.6361 191.025 64.9463 189.65 65.8496C188.275 66.7529 186.399 67.2046 184.022 67.2046C182.688 67.2046 181.479 67.0622 180.397 66.7773C180.226 66.8913 180.141 67.0337 180.141 67.2046C180.141 67.522 180.328 67.7458 180.702 67.876C181.076 68.0062 181.573 68.0957 182.191 68.1445C182.81 68.1852 183.514 68.2015 184.303 68.1934C185.093 68.1771 185.898 68.1893 186.72 68.23C187.55 68.2625 188.36 68.3358 189.149 68.4497C189.947 68.5636 190.651 68.7671 191.261 69.0601C191.88 69.353 192.376 69.7518 192.75 70.2563C193.125 70.769 193.312 71.4242 193.312 72.2217ZM182.313 61.5771C182.313 62.4235 182.431 63.0786 182.667 63.5425C182.903 63.9982 183.355 64.2261 184.022 64.2261C184.698 64.2261 185.154 63.9982 185.39 63.5425C185.626 63.0786 185.744 62.4235 185.744 61.5771C185.744 60.7389 185.626 60.1001 185.39 59.6606C185.154 59.2212 184.698 59.0015 184.022 59.0015C183.355 59.0015 182.903 59.2212 182.667 59.6606C182.431 60.1001 182.313 60.7389 182.313 61.5771ZM184.572 72.4048C183.701 72.4048 182.912 72.3804 182.204 72.3315C181.496 72.2909 180.857 72.2298 180.287 72.1484C180.206 72.2868 180.165 72.4292 180.165 72.5757C180.165 73.1616 180.482 73.5441 181.117 73.7231C181.752 73.9103 182.586 74.0039 183.62 74.0039C185.003 74.0039 186.012 73.9185 186.647 73.7476C187.29 73.5848 187.611 73.3529 187.611 73.0518C187.611 72.8971 187.518 72.7791 187.331 72.6978C187.152 72.6164 186.911 72.5513 186.61 72.5024C186.317 72.4536 185.992 72.4251 185.634 72.417C185.276 72.4089 184.922 72.4048 184.572 72.4048Z" fill="white"/>
<path d="M202.577 56.5479L202.37 59.9048H202.577C202.862 58.619 203.334 57.6465 203.993 56.9873C204.66 56.3281 205.523 55.9985 206.581 55.9985C207.208 55.9985 207.745 56.1003 208.192 56.3037C208.648 56.499 209.014 56.7635 209.291 57.0972C209.568 57.4308 209.767 57.8174 209.889 58.2568C210.011 58.6882 210.072 59.1357 210.072 59.5996C210.072 59.9821 210.015 60.3605 209.901 60.7349C209.787 61.1092 209.604 61.4469 209.352 61.748C209.1 62.0492 208.774 62.2933 208.375 62.4805C207.977 62.6595 207.484 62.749 206.898 62.749C206.085 62.749 205.442 62.5415 204.97 62.1265C204.506 61.7114 204.274 61.2109 204.274 60.625C204.274 60.3402 204.306 60.1001 204.372 59.9048C204.437 59.7013 204.502 59.5386 204.567 59.4165C204.64 59.2863 204.689 59.1927 204.713 59.1357C204.738 59.0788 204.709 59.0503 204.628 59.0503C204.457 59.0503 204.27 59.2456 204.066 59.6362C203.871 60.0269 203.773 60.6413 203.773 61.4795V64.2749C203.773 64.7062 203.847 65.0155 203.993 65.2026C204.148 65.3817 204.441 65.4712 204.872 65.4712H205.604V70H195.326V65.4712H196.046C196.38 65.4712 196.632 65.3654 196.803 65.1538C196.982 64.9341 197.072 64.6737 197.072 64.3726V62.0532C197.072 61.6707 196.958 61.4144 196.73 61.2842C196.51 61.1458 196.258 61.0767 195.973 61.0767H195.326V56.5479H202.577Z" fill="white"/>
<path d="M216.92 58.2446C216.505 58.2446 216.147 58.2772 215.846 58.3423C215.553 58.3993 215.301 58.4684 215.089 58.5498C214.878 58.6312 214.703 58.7248 214.564 58.8306C214.426 58.9282 214.304 59.0177 214.198 59.0991L214.32 59.2212C214.475 59.1398 214.642 59.0584 214.821 58.9771C215.008 58.8957 215.244 58.855 215.529 58.855C216.009 58.855 216.424 59.0137 216.774 59.3311C217.124 59.6403 217.299 60.1367 217.299 60.8203C217.299 61.4714 217.03 61.9963 216.493 62.395C215.964 62.7856 215.252 62.981 214.357 62.981C213.502 62.981 212.819 62.7368 212.306 62.2485C211.802 61.7521 211.549 61.0522 211.549 60.1489C211.549 59.6525 211.688 59.1602 211.964 58.6719C212.241 58.1755 212.668 57.7319 213.246 57.3413C213.832 56.9507 214.573 56.6292 215.468 56.377C216.371 56.1247 217.458 55.9985 218.727 55.9985C220.241 55.9985 221.478 56.141 222.438 56.4258C223.398 56.7106 224.143 57.0768 224.672 57.5244C225.209 57.972 225.575 58.4806 225.771 59.0503C225.974 59.62 226.076 60.1937 226.076 60.7715V65.5444C226.076 66.285 226.1 66.7896 226.149 67.0581C226.198 67.3185 226.381 67.4487 226.698 67.4487C226.951 67.4487 227.125 67.3307 227.223 67.0947C227.329 66.8506 227.382 66.4355 227.382 65.8496V64.3237H228.773V65.874C228.773 66.6064 228.712 67.2575 228.59 67.8271C228.468 68.3887 228.236 68.8729 227.895 69.2798C227.553 69.6785 227.089 69.9797 226.503 70.1831C225.917 70.3947 225.168 70.5005 224.257 70.5005C223.435 70.5005 222.751 70.411 222.206 70.2319C221.669 70.061 221.242 69.8454 220.924 69.585C220.607 69.3245 220.379 69.056 220.241 68.7793C220.111 68.4945 220.045 68.2422 220.045 68.0225H219.85C219.801 68.3561 219.659 68.6735 219.423 68.9746C219.195 69.2757 218.874 69.5443 218.458 69.7803C218.052 70.0081 217.559 70.1912 216.981 70.3296C216.412 70.4761 215.761 70.5493 215.028 70.5493C214.328 70.5493 213.69 70.4801 213.112 70.3418C212.542 70.2116 212.054 70.0041 211.647 69.7192C211.248 69.4263 210.935 69.0519 210.707 68.5962C210.487 68.1323 210.377 67.583 210.377 66.9482C210.377 66.167 210.597 65.5526 211.037 65.105C211.476 64.6493 212.029 64.2912 212.697 64.0308C213.364 63.7622 214.088 63.5465 214.87 63.3838C215.659 63.2129 216.387 63.0094 217.055 62.7734C217.722 62.5374 218.275 62.2323 218.715 61.8579C219.154 61.4836 219.374 60.9546 219.374 60.271C219.374 59.6606 219.183 59.1724 218.8 58.8062C218.418 58.4318 217.791 58.2446 216.92 58.2446ZM219.374 63.5303C219.195 63.7907 218.971 64.0023 218.703 64.165C218.434 64.3197 218.174 64.4743 217.921 64.6289C217.677 64.7754 217.462 64.9544 217.274 65.166C217.095 65.3695 217.006 65.6462 217.006 65.9961C217.006 66.2646 217.079 66.5088 217.226 66.7285C217.372 66.9401 217.657 67.0459 218.08 67.0459C218.463 67.0459 218.772 66.8994 219.008 66.6064C219.252 66.3053 219.374 65.8862 219.374 65.3491V63.5303Z" fill="white"/>
</g>
<defs>
<clipPath id="clip0_2085_1329">
<rect width="229" height="90" fill="white"/>
</clipPath>
</defs>
</svg>
